<svg width="51" height="47" viewBox="0 0 51 47" fill="none" xmlns="http://www.w3.org/2000/svg">
<path d="M25.667 12.6883C27.9685 10.1583 29.1193 8.89335 30.0895 8.76276C30.9299 8.64963 31.7567 8.94797 32.2987 9.55994C32.9243 10.2663 32.8705 11.9272 32.7629 15.2488L32.7111 16.8497C32.68 17.8099 32.6645 18.2899 32.8072 18.7057C32.9333 19.0732 33.1474 19.403 33.432 19.6684C33.754 19.9687 34.1998 20.1516 35.0915 20.5174L36.5781 21.1272C39.6627 22.3926 41.205 23.0253 41.5949 23.8835C41.9327 24.627 41.8665 25.5006 41.418 26.2178C40.9004 27.0456 39.2702 27.572 36.0099 28.6247L34.4386 29.1321C33.4962 29.4364 33.025 29.5885 32.6592 29.8658C32.3359 30.1109 32.0731 30.4247 31.892 30.7819C31.6871 31.186 31.63 31.6647 31.5158 32.6221L31.3254 34.2183C30.9302 37.5303 30.7326 39.1863 30.0034 39.8473C29.3717 40.42 28.504 40.6615 27.6849 40.4928C26.7393 40.298 25.7856 38.9625 23.8782 36.2915L22.9589 35.0042C22.4076 34.2321 22.1319 33.8461 21.7631 33.6016C21.4371 33.3856 21.0607 33.2497 20.6642 33.2051C20.2155 33.1545 19.7344 33.2675 18.7722 33.4934L17.1678 33.8701C13.839 34.6517 12.1746 35.0425 11.334 34.5928C10.6058 34.2032 10.1357 33.4789 10.078 32.6574C10.0113 31.7092 11.052 30.3575 13.1334 27.6539L14.1366 26.351C14.7383 25.5695 15.0391 25.1787 15.1769 24.7504C15.2988 24.3718 15.3289 23.9741 15.2649 23.5893C15.1925 23.1539 14.9523 22.745 14.4718 21.9273L13.6707 20.5638C12.0086 17.7349 11.1775 16.3204 11.3872 15.3814C11.5689 14.568 12.1461 13.8788 12.9295 13.5399C13.8338 13.1486 15.4307 13.6487 18.6245 14.6488L20.1637 15.1309C21.0869 15.42 21.5485 15.5645 22.0026 15.5442C22.4038 15.5263 22.7989 15.4163 23.1559 15.2232C23.5598 15.0046 23.8924 14.639 24.5577 13.9076L25.667 12.6883Z" fill="white" fill-opacity="0.35"/>
</svg>
