<svg width="500" height="750" viewBox="0 0 500 750" fill="none" xmlns="http://www.w3.org/2000/svg">
<rect width="500" height="750" rx="35" fill="url(#paint0_angular_1241_3691)"/>
<rect x="33.5" y="34.5" width="434" height="683" rx="18.5" fill="url(#paint1_angular_1241_3691)" stroke="white" stroke-width="3"/>
<mask id="mask0_1241_3691" style="mask-type:alpha" maskUnits="userSpaceOnUse" x="0" y="0" width="500" height="750">
<rect width="500" height="750" rx="35" fill="url(#paint2_angular_1241_3691)"/>
</mask>
<g mask="url(#mask0_1241_3691)">
<path d="M248.512 297.371C248.687 296.242 250.313 296.242 250.488 297.371L260.346 360.932C260.407 361.323 260.692 361.641 261.074 361.744L310.415 375.034C311.402 375.3 311.402 376.7 310.415 376.966L261.074 390.256C260.692 390.359 260.407 390.677 260.346 391.068L250.488 454.629C250.313 455.758 248.687 455.758 248.512 454.629L238.654 391.068C238.593 390.677 238.308 390.359 237.926 390.256L188.585 376.966C187.598 376.7 187.598 375.3 188.585 375.034L237.926 361.744C238.308 361.641 238.593 361.323 238.654 360.932L248.512 297.371Z" fill="white"/>
<path d="M249.02 130.793C249.238 129.727 250.762 129.727 250.98 130.793L256.995 160.225C257.076 160.618 257.382 160.924 257.775 161.005L287.207 167.02C288.273 167.238 288.273 168.762 287.207 168.98L257.775 174.995C257.382 175.076 257.076 175.382 256.995 175.775L250.98 205.207C250.762 206.273 249.238 206.273 249.02 205.207L243.005 175.775C242.924 175.382 242.618 175.076 242.225 174.995L212.793 168.98C211.727 168.762 211.727 167.238 212.793 167.02L242.225 161.005C242.618 160.924 242.924 160.618 243.005 160.225L249.02 130.793Z" fill="white"/>
<path d="M248.013 547.99C248.197 546.874 249.803 546.874 249.987 547.99L254.823 577.353C254.893 577.776 255.224 578.107 255.647 578.177L285.01 583.013C286.126 583.197 286.126 584.803 285.01 584.987L255.647 589.823C255.224 589.893 254.893 590.224 254.823 590.647L249.987 620.01C249.803 621.126 248.197 621.126 248.013 620.01L243.177 590.647C243.107 590.224 242.776 589.893 242.353 589.823L212.99 584.987C211.874 584.803 211.874 583.197 212.99 583.013L242.353 578.177C242.776 578.107 243.107 577.776 243.177 577.353L248.013 547.99Z" fill="white"/>
<path d="M250 234L250.474 243.937C250.587 246.316 253.296 247.621 255.227 246.226L263.291 240.401L255.818 246.966C254.028 248.539 254.697 251.47 256.992 252.11L266.574 254.783L256.781 253.034C254.436 252.615 252.561 254.965 253.492 257.158L257.376 266.316L252.638 257.57C251.503 255.475 248.497 255.475 247.362 257.57L242.624 266.316L246.508 257.158C247.439 254.965 245.564 252.615 243.219 253.034L233.426 254.783L243.008 252.11C245.303 251.47 245.972 248.539 244.182 246.966L236.709 240.401L244.773 246.226C246.704 247.621 249.413 246.316 249.526 243.937L250 234Z" fill="white"/>
<path d="M410 323L410.474 332.937C410.587 335.316 413.296 336.621 415.227 335.226L423.291 329.401L415.818 335.966C414.028 337.539 414.697 340.47 416.992 341.11L426.574 343.783L416.781 342.034C414.436 341.615 412.561 343.965 413.492 346.158L417.376 355.316L412.638 346.57C411.503 344.475 408.497 344.475 407.362 346.57L402.624 355.316L406.508 346.158C407.439 343.965 405.564 341.615 403.219 342.034L393.426 343.783L403.008 341.11C405.303 340.47 405.972 337.539 404.182 335.966L396.709 329.401L404.773 335.226C406.704 336.621 409.413 335.316 409.526 332.937L410 323Z" fill="white"/>
<path d="M123 323L123.474 332.937C123.587 335.316 126.296 336.621 128.227 335.226L136.291 329.401L128.818 335.966C127.028 337.539 127.697 340.47 129.992 341.11L139.574 343.783L129.781 342.034C127.436 341.615 125.561 343.965 126.492 346.158L130.376 355.316L125.638 346.57C124.503 344.475 121.497 344.475 120.362 346.57L115.624 355.316L119.508 346.158C120.439 343.965 118.564 341.615 116.219 342.034L106.426 343.783L116.008 341.11C118.303 340.47 118.972 337.539 117.182 335.966L109.709 329.401L117.773 335.226C119.704 336.621 122.413 335.316 122.526 332.937L123 323Z" fill="white"/>
<path d="M249 485L249.474 494.937C249.587 497.316 252.296 498.621 254.227 497.226L262.291 491.401L254.818 497.966C253.028 499.539 253.697 502.47 255.992 503.11L265.574 505.783L255.781 504.034C253.436 503.615 251.561 505.965 252.492 508.158L256.376 517.316L251.638 508.57C250.503 506.475 247.497 506.475 246.362 508.57L241.624 517.316L245.508 508.158C246.439 505.965 244.564 503.615 242.219 504.034L232.426 505.783L242.008 503.11C244.303 502.47 244.972 499.539 243.182 497.966L235.709 491.401L243.773 497.226C245.704 498.621 248.413 497.316 248.526 494.937L249 485Z" fill="white"/>
<path d="M410 76L410.474 85.9365C410.587 88.3162 413.296 89.6205 415.227 88.2255L423.291 82.4007L415.818 88.9664C414.028 90.5389 414.697 93.4697 416.992 94.1098L426.574 96.7829L416.781 95.0337C414.436 94.6148 412.561 96.9652 413.492 99.1584L417.376 108.316L412.638 99.5696C411.503 97.4748 408.497 97.4748 407.362 99.5696L402.624 108.316L406.508 99.1584C407.439 96.9652 405.564 94.6148 403.219 95.0337L393.426 96.7829L403.008 94.1098C405.303 93.4697 405.972 90.5388 404.182 88.9664L396.709 82.4007L404.773 88.2255C406.704 89.6205 409.413 88.3162 409.526 85.9365L410 76Z" fill="white"/>
<path d="M89 68L89.4738 77.9365C89.5873 80.3162 92.2958 81.6205 94.227 80.2255L102.291 74.4007L94.8179 80.9664C93.0281 82.5389 93.6971 85.4697 95.9918 86.1098L105.574 88.7829L95.781 87.0337C93.4357 86.6148 91.5614 88.9652 92.4916 91.1584L96.376 100.316L91.6378 91.5696C90.5031 89.4748 87.4969 89.4748 86.3622 91.5696L81.624 100.316L85.5084 91.1584C86.4386 88.9652 84.5643 86.6148 82.219 87.0337L72.4262 88.7829L82.0082 86.1098C84.3029 85.4697 84.9719 82.5388 83.1821 80.9664L75.7089 74.4007L83.773 80.2255C85.7042 81.6205 88.4127 80.3162 88.5262 77.9365L89 68Z" fill="white"/>
<path d="M365 478L365.474 487.937C365.587 490.316 368.296 491.621 370.227 490.226L378.291 484.401L370.818 490.966C369.028 492.539 369.697 495.47 371.992 496.11L381.574 498.783L371.781 497.034C369.436 496.615 367.561 498.965 368.492 501.158L372.376 510.316L367.638 501.57C366.503 499.475 363.497 499.475 362.362 501.57L357.624 510.316L361.508 501.158C362.439 498.965 360.564 496.615 358.219 497.034L348.426 498.783L358.008 496.11C360.303 495.47 360.972 492.539 359.182 490.966L351.709 484.401L359.773 490.226C361.704 491.621 364.413 490.316 364.526 487.937L365 478Z" fill="white"/>
<path d="M133 478L133.474 487.937C133.587 490.316 136.296 491.621 138.227 490.226L146.291 484.401L138.818 490.966C137.028 492.539 137.697 495.47 139.992 496.11L149.574 498.783L139.781 497.034C137.436 496.615 135.561 498.965 136.492 501.158L140.376 510.316L135.638 501.57C134.503 499.475 131.497 499.475 130.362 501.57L125.624 510.316L129.508 501.158C130.439 498.965 128.564 496.615 126.219 497.034L116.426 498.783L126.008 496.11C128.303 495.47 128.972 492.539 127.182 490.966L119.709 484.401L127.773 490.226C129.704 491.621 132.413 490.316 132.526 487.937L133 478Z" fill="white"/>
<path d="M410 609L410.474 618.937C410.587 621.316 413.296 622.621 415.227 621.226L423.291 615.401L415.818 621.966C414.028 623.539 414.697 626.47 416.992 627.11L426.574 629.783L416.781 628.034C414.436 627.615 412.561 629.965 413.492 632.158L417.376 641.316L412.638 632.57C411.503 630.475 408.497 630.475 407.362 632.57L402.624 641.316L406.508 632.158C407.439 629.965 405.564 627.615 403.219 628.034L393.426 629.783L403.008 627.11C405.303 626.47 405.972 623.539 404.182 621.966L396.709 615.401L404.773 621.226C406.704 622.621 409.413 621.316 409.526 618.937L410 609Z" fill="white"/>
<path d="M250 51L250.474 60.9365C250.587 63.3162 253.296 64.6205 255.227 63.2255L263.291 57.4007L255.818 63.9664C254.028 65.5389 254.697 68.4697 256.992 69.1098L266.574 71.7829L256.781 70.0337C254.436 69.6148 252.561 71.9652 253.492 74.1584L257.376 83.3165L252.638 74.5696C251.503 72.4748 248.497 72.4748 247.362 74.5696L242.624 83.3165L246.508 74.1584C247.439 71.9652 245.564 69.6148 243.219 70.0337L233.426 71.7829L243.008 69.1098C245.303 68.4697 245.972 65.5388 244.182 63.9664L236.709 57.4007L244.773 63.2255C246.704 64.6205 249.413 63.3162 249.526 60.9365L250 51Z" fill="white"/>
<path d="M249 660L249.474 669.937C249.587 672.316 252.296 673.621 254.227 672.226L262.291 666.401L254.818 672.966C253.028 674.539 253.697 677.47 255.992 678.11L265.574 680.783L255.781 679.034C253.436 678.615 251.561 680.965 252.492 683.158L256.376 692.316L251.638 683.57C250.503 681.475 247.497 681.475 246.362 683.57L241.624 692.316L245.508 683.158C246.439 680.965 244.564 678.615 242.219 679.034L232.426 680.783L242.008 678.11C244.303 677.47 244.972 674.539 243.182 672.966L235.709 666.401L243.773 672.226C245.704 673.621 248.413 672.316 248.526 669.937L249 660Z" fill="white"/>
<path d="M17 716L17.4738 725.937C17.5873 728.316 20.2958 729.621 22.227 728.226L30.2911 722.401L22.8179 728.966C21.0281 730.539 21.6971 733.47 23.9918 734.11L33.5738 736.783L23.781 735.034C21.4357 734.615 19.5614 736.965 20.4916 739.158L24.376 748.316L19.6378 739.57C18.5031 737.475 15.4969 737.475 14.3622 739.57L9.62398 748.316L13.5084 739.158C14.4386 736.965 12.5643 734.615 10.219 735.034L0.426226 736.783L10.0082 734.11C12.3029 733.47 12.9719 730.539 11.1821 728.966L3.70887 722.401L11.773 728.226C13.7042 729.621 16.4127 728.316 16.5262 725.937L17 716Z" fill="white"/>
<path d="M17 0L17.4738 9.9365C17.5873 12.3162 20.2958 13.6205 22.227 12.2255L30.2911 6.40067L22.8179 12.9664C21.0281 14.5389 21.6971 17.4697 23.9918 18.1098L33.5738 20.7829L23.781 19.0337C21.4357 18.6148 19.5614 20.9652 20.4916 23.1584L24.376 32.3165L19.6378 23.5696C18.5031 21.4748 15.4969 21.4748 14.3622 23.5696L9.62398 32.3165L13.5084 23.1584C14.4386 20.9652 12.5643 18.6148 10.219 19.0337L0.426226 20.7829L10.0082 18.1098C12.3029 17.4697 12.9719 14.5388 11.1821 12.9664L3.70887 6.40067L11.773 12.2255C13.7042 13.6205 16.4127 12.3162 16.5262 9.9365L17 0Z" fill="white"/>
<path d="M483 0L483.474 9.9365C483.587 12.3162 486.296 13.6205 488.227 12.2255L496.291 6.40067L488.818 12.9664C487.028 14.5389 487.697 17.4697 489.992 18.1098L499.574 20.7829L489.781 19.0337C487.436 18.6148 485.561 20.9652 486.492 23.1584L490.376 32.3165L485.638 23.5696C484.503 21.4748 481.497 21.4748 480.362 23.5696L475.624 32.3165L479.508 23.1584C480.439 20.9652 478.564 18.6148 476.219 19.0337L466.426 20.7829L476.008 18.1098C478.303 17.4697 478.972 14.5388 477.182 12.9664L469.709 6.40067L477.773 12.2255C479.704 13.6205 482.413 12.3162 482.526 9.9365L483 0Z" fill="white"/>
<path d="M483 716L483.474 725.937C483.587 728.316 486.296 729.621 488.227 728.226L496.291 722.401L488.818 728.966C487.028 730.539 487.697 733.47 489.992 734.11L499.574 736.783L489.781 735.034C487.436 734.615 485.561 736.965 486.492 739.158L490.376 748.316L485.638 739.57C484.503 737.475 481.497 737.475 480.362 739.57L475.624 748.316L479.508 739.158C480.439 736.965 478.564 734.615 476.219 735.034L466.426 736.783L476.008 734.11C478.303 733.47 478.972 730.539 477.182 728.966L469.709 722.401L477.773 728.226C479.704 729.621 482.413 728.316 482.526 725.937L483 716Z" fill="white"/>
<path d="M89 609L89.4738 618.937C89.5873 621.316 92.2958 622.621 94.227 621.226L102.291 615.401L94.8179 621.966C93.0281 623.539 93.6971 626.47 95.9918 627.11L105.574 629.783L95.781 628.034C93.4357 627.615 91.5614 629.965 92.4916 632.158L96.376 641.316L91.6378 632.57C90.5031 630.475 87.4969 630.475 86.3622 632.57L81.624 641.316L85.5084 632.158C86.4386 629.965 84.5643 627.615 82.219 628.034L72.4262 629.783L82.0082 627.11C84.3029 626.47 84.9719 623.539 83.1821 621.966L75.7089 615.401L83.773 621.226C85.7042 622.621 88.4127 621.316 88.5262 618.937L89 609Z" fill="white"/>
</g>
<defs>
<radialGradient id="paint0_angular_1241_3691" cx="0" cy="0" r="1" gradientUnits="userSpaceOnUse" gradientTransform="translate(284.25 336.75) rotate(122.647) scale(399.936 266.624)">
<stop offset="0.084193" stop-color="#E078E0"/>
<stop offset="0.665" stop-color="#FDFDFD"/>
<stop offset="0.817515" stop-color="#2225AC"/>
</radialGradient>
<radialGradient id="paint1_angular_1241_3691" cx="0" cy="0" r="1" gradientUnits="userSpaceOnUse" gradientTransform="translate(237 391.75) rotate(122.704) scale(419.207 267.046)">
<stop offset="0.156294" stop-color="#E283E2"/>
<stop offset="0.77708" stop-color="#3033B1"/>
</radialGradient>
<radialGradient id="paint2_angular_1241_3691" cx="0" cy="0" r="1" gradientUnits="userSpaceOnUse" gradientTransform="translate(284.25 336.75) rotate(122.647) scale(399.936 266.624)">
<stop offset="0.084193" stop-color="#E078E0"/>
<stop offset="0.665" stop-color="#FDFDFD"/>
<stop offset="0.817515" stop-color="#2225AC"/>
</radialGradient>
</defs>
</svg>
