<svg width="64" height="96" viewBox="0 0 64 96" fill="none" xmlns="http://www.w3.org/2000/svg">
<rect width="64" height="96" rx="3" fill="#D9D9D9" fill-opacity="0.25"/>
<path d="M53 32.0002V44.0002M53 44.0002H41M53 44.0002L43.72 35.2802C41.5705 33.1296 38.9113 31.5586 35.9904 30.7137C33.0695 29.8688 29.9822 29.7777 27.0166 30.4487C24.0509 31.1197 21.3036 32.531 19.0309 34.551C16.7583 36.571 15.0343 39.1337 14.02 42.0002M9 64.0002V52.0002M9 52.0002H21M9 52.0002L18.28 60.7202C20.4295 62.8707 23.0887 64.4417 26.0096 65.2866C28.9305 66.1315 32.0178 66.2226 34.9834 65.5516C37.9491 64.8806 40.6964 63.4693 42.9691 61.4493C45.2417 59.4293 46.9657 56.8666 47.98 54.0002" stroke="#B3B3B3" stroke-width="4" stroke-linecap="round" stroke-linejoin="round"/>
</svg>
